<svg xmlns="http://www.w3.org/2000/svg" version="1.1" xmlns:xlink="http://www.w3.org/1999/xlink" xmlns:svgjs="http://svgjs.dev/svgjs" width="2000" height="580" viewBox="0 0 2000 580"><g transform="matrix(1,0,0,1,-1.2121212121212466,4.814293789832277)"><svg viewBox="0 0 396 115" data-background-color="#ffffff" preserveAspectRatio="xMidYMid meet" height="580" width="2000" xmlns="http://www.w3.org/2000/svg" xmlns:xlink="http://www.w3.org/1999/xlink"><g id="tight-bounds" transform="matrix(1,0,0,1,0.2400000000000091,1.4043998900832833)"><svg viewBox="0 0 395.52 113.20328805529213" height="113.20328805529213" width="395.52"><g><svg viewBox="0 0 397.4975999999999 113.76930449556858" height="113.20328805529213" width="395.52"><g><rect width="397.4975999999999" height="3.484603534255568" x="0" y="62.52260839390386" fill="#233565" opacity="1" stroke-width="0" stroke="transparent" fill-opacity="1" class="rect-yte-0" data-fill-palette-color="secondary" rx="1%" id="yte-0" data-palette-color="#233565"></rect></g><g transform="matrix(1,0,0,1,0.9887999999999693,75.12921070893316)"><svg viewBox="0 0 395.52 38.6400937866354" height="38.6400937866354" width="395.52"><g id="textblocktransform"><svg viewBox="0 0 395.52 38.6400937866354" height="38.6400937866354" width="395.52" id="textblock"><g><svg viewBox="0 0 395.52 38.6400937866354" height="38.6400937866354" width="395.52"><g transform="matrix(1,0,0,1,0,0)"><svg width="395.52" viewBox="4.4 -37 379.57000000000005 37.5" height="38.6400937866354" data-palette-color="#233565"><g class="wordmark-text-0" data-fill-palette-color="primary" id="text-0"><path d="M15.2 0.5L15.2 0.5Q11.9 0.5 9.47-0.75 7.05-2 5.73-4.38 4.4-6.75 4.4-10L4.4-10 4.4-26.5Q4.4-29.8 5.73-32.15 7.05-34.5 9.47-35.75 11.9-37 15.2-37L15.2-37Q18.5-37 20.9-35.73 23.3-34.45 24.6-32.1 25.9-29.75 25.9-26.5L25.9-26.5 21.4-26.5Q21.4-29.6 19.78-31.28 18.15-32.95 15.2-32.95L15.2-32.95Q12.25-32.95 10.58-31.3 8.9-29.65 8.9-26.55L8.9-26.55 8.9-10Q8.9-6.9 10.58-5.23 12.25-3.55 15.2-3.55L15.2-3.55Q18.15-3.55 19.78-5.23 21.4-6.9 21.4-10L21.4-10 25.9-10Q25.9-6.8 24.6-4.42 23.3-2.05 20.9-0.78 18.5 0.5 15.2 0.5ZM45 0.4L45 0.4Q41.7 0.4 39.3-0.85 36.9-2.1 35.57-4.48 34.25-6.85 34.25-10.1L34.25-10.1 34.25-17.4Q34.25-20.7 35.57-23.05 36.9-25.4 39.3-26.65 41.7-27.9 45-27.9L45-27.9Q48.3-27.9 50.7-26.65 53.1-25.4 54.42-23.05 55.75-20.7 55.75-17.45L55.75-17.45 55.75-10.1Q55.75-6.85 54.42-4.48 53.1-2.1 50.7-0.85 48.3 0.4 45 0.4ZM45-3.6L45-3.6Q47.95-3.6 49.6-5.25 51.25-6.9 51.25-10.1L51.25-10.1 51.25-17.4Q51.25-20.6 49.6-22.25 47.95-23.9 45-23.9L45-23.9Q42.1-23.9 40.42-22.25 38.75-20.6 38.75-17.4L38.75-17.4 38.75-10.1Q38.75-6.9 40.42-5.25 42.1-3.6 45-3.6ZM73.4 0.5L73.4 0.5Q69.3 0.5 66.77-2.25 64.25-5 64.25-9.7L64.25-9.7 64.25-17.75Q64.25-22.5 66.75-25.25 69.25-28 73.4-28L73.4-28Q76.8-28 78.84-26.15 80.9-24.3 80.9-21.2L80.9-21.2 80-22.25 81-22.25 80.9-28.5 80.9-36.5 85.4-36.5 85.4 0 80.9 0 80.9-5.25 80-5.25 80.9-6.3Q80.9-3.15 78.84-1.33 76.8 0.5 73.4 0.5ZM74.9-3.4L74.9-3.4Q77.7-3.4 79.3-5.15 80.9-6.9 80.9-10L80.9-10 80.9-17.5Q80.9-20.6 79.3-22.35 77.7-24.1 74.9-24.1L74.9-24.1Q72.05-24.1 70.4-22.4 68.75-20.7 68.75-17.5L68.75-17.5 68.75-10Q68.75-6.8 70.4-5.1 72.05-3.4 74.9-3.4ZM104.99 0.5L104.99 0.5Q101.74 0.5 99.32-0.8 96.89-2.1 95.57-4.48 94.24-6.85 94.24-10L94.24-10 94.24-17.5Q94.24-20.7 95.57-23.05 96.89-25.4 99.32-26.7 101.74-28 104.99-28L104.99-28Q108.24-28 110.67-26.7 113.09-25.4 114.42-23.05 115.74-20.7 115.74-17.5L115.74-17.5 115.74-12.65 98.64-12.65 98.64-10Q98.64-6.75 100.29-5.03 101.94-3.3 104.99-3.3L104.99-3.3Q107.59-3.3 109.19-4.23 110.79-5.15 111.14-7L111.14-7 115.64-7Q115.19-3.55 112.27-1.53 109.34 0.5 104.99 0.5ZM111.69-16.05L111.34-15.65 111.34-17.5Q111.34-20.75 109.72-22.5 108.09-24.25 104.99-24.25L104.99-24.25Q101.94-24.25 100.29-22.5 98.64-20.75 98.64-17.5L98.64-17.5 98.64-16.05 111.69-16.05Z" fill="#233565" data-fill-palette-color="primary"></path><path d="M160.74 0.5L160.74 0.5Q157.44 0.5 155.06-0.75 152.69-2 151.41-4.38 150.14-6.75 150.14-10L150.14-10 150.14-26.5Q150.14-29.8 151.41-32.15 152.69-34.5 155.06-35.75 157.44-37 160.74-37L160.74-37Q164.04-37 166.41-35.75 168.79-34.5 170.06-32.15 171.34-29.8 171.34-26.55L171.34-26.55 171.34-10Q171.34-6.75 170.06-4.38 168.79-2 166.41-0.75 164.04 0.5 160.74 0.5ZM160.74-3.55L160.74-3.55Q163.69-3.55 165.26-5.23 166.84-6.9 166.84-10L166.84-10 166.84-26.5Q166.84-29.6 165.26-31.28 163.69-32.95 160.74-32.95L160.74-32.95Q157.84-32.95 156.24-31.28 154.64-29.6 154.64-26.5L154.64-26.5 154.64-10Q154.64-6.9 156.24-5.23 157.84-3.55 160.74-3.55ZM193.79 0L187.69 0 178.49-27.5 183.08-27.5 189.19-9Q189.74-7.35 190.19-5.83 190.64-4.3 190.83-3.45L190.83-3.45Q191.08-4.3 191.54-5.83 191.99-7.35 192.49-9L192.49-9 198.44-27.5 202.99-27.5 193.79 0ZM220.73 0.5L220.73 0.5Q217.48 0.5 215.06-0.8 212.63-2.1 211.31-4.48 209.98-6.85 209.98-10L209.98-10 209.98-17.5Q209.98-20.7 211.31-23.05 212.63-25.4 215.06-26.7 217.48-28 220.73-28L220.73-28Q223.98-28 226.41-26.7 228.83-25.4 230.16-23.05 231.48-20.7 231.48-17.5L231.48-17.5 231.48-12.65 214.38-12.65 214.38-10Q214.38-6.75 216.03-5.03 217.68-3.3 220.73-3.3L220.73-3.3Q223.33-3.3 224.93-4.23 226.53-5.15 226.88-7L226.88-7 231.38-7Q230.93-3.55 228.01-1.53 225.08 0.5 220.73 0.5ZM227.43-16.05L227.08-15.65 227.08-17.5Q227.08-20.75 225.46-22.5 223.83-24.25 220.73-24.25L220.73-24.25Q217.68-24.25 216.03-22.5 214.38-20.75 214.38-17.5L214.38-17.5 214.38-16.05 227.43-16.05ZM245.78 0L241.28 0 241.28-27.5 245.68-27.5 245.68-22.25 246.73-22.25 245.28-19Q245.28-23.45 247.21-25.73 249.13-28 252.93-28L252.93-28Q257.28-28 259.86-25.28 262.43-22.55 262.43-17.9L262.43-17.9 262.43-16.25 257.93-16.25 257.93-17.5Q257.93-20.75 256.36-22.48 254.78-24.2 251.88-24.2L251.88-24.2Q249.03-24.2 247.41-22.45 245.78-20.7 245.78-17.5L245.78-17.5 245.78 0ZM281.23 0L276.73 0 276.73-20.65 268.73-20.65 268.73-24.75 276.73-24.75 276.73-29.5Q276.73-32.75 278.78-34.63 280.83-36.5 284.43-36.5L284.43-36.5 292.48-36.5 292.48-32.4 284.43-32.4Q282.88-32.4 282.05-31.68 281.23-30.95 281.23-29.5L281.23-29.5 281.23-24.75 292.48-24.75 292.48-20.65 281.23-20.65 281.23 0ZM323.23 0L314.48 0Q312.08 0 310.28-0.95 308.48-1.9 307.48-3.65 306.48-5.4 306.48-7.75L306.48-7.75 306.48-32.4 297.23-32.4 297.23-36.5 310.98-36.5 310.98-7.75Q310.98-6.05 311.93-5.08 312.88-4.1 314.48-4.1L314.48-4.1 323.23-4.1 323.23 0ZM340.72 0.4L340.72 0.4Q337.42 0.4 335.02-0.85 332.62-2.1 331.3-4.48 329.97-6.85 329.97-10.1L329.97-10.1 329.97-17.4Q329.97-20.7 331.3-23.05 332.62-25.4 335.02-26.65 337.42-27.9 340.72-27.9L340.72-27.9Q344.02-27.9 346.42-26.65 348.82-25.4 350.15-23.05 351.47-20.7 351.47-17.45L351.47-17.45 351.47-10.1Q351.47-6.85 350.15-4.48 348.82-2.1 346.42-0.85 344.02 0.4 340.72 0.4ZM340.72-3.6L340.72-3.6Q343.67-3.6 345.32-5.25 346.97-6.9 346.97-10.1L346.97-10.1 346.97-17.4Q346.97-20.6 345.32-22.25 343.67-23.9 340.72-23.9L340.72-23.9Q337.82-23.9 336.15-22.25 334.47-20.6 334.47-17.4L334.47-17.4 334.47-10.1Q334.47-6.9 336.15-5.25 337.82-3.6 340.72-3.6ZM366.82 0L361.87 0 357.47-27.5 361.47-27.5 364.22-8Q364.37-6.9 364.55-5.63 364.72-4.35 364.82-3.5L364.82-3.5Q364.92-4.35 365.15-5.63 365.37-6.9 365.52-8L365.52-8 368.57-27.5 372.87-27.5 375.92-8Q376.07-6.9 376.3-5.63 376.52-4.35 376.62-3.5L376.62-3.5Q376.72-4.35 376.95-5.63 377.17-6.9 377.32-8L377.32-8 380.17-27.5 383.97-27.5 379.37 0 374.42 0 371.47-19Q371.27-20.4 371.02-21.8 370.77-23.2 370.67-24L370.67-24Q370.57-23.2 370.37-21.8 370.17-20.4 369.92-19L369.92-19 366.82 0Z" fill="#0126e0" data-fill-palette-color="accent"></path></g></svg></g></svg></g></svg></g></svg></g><g transform="matrix(1,0,0,1,132.1563657514331,0)"><svg viewBox="0 0 133.18486849713372 53.40060961313012" height="53.40060961313012" width="133.18486849713372"><g><svg xmlns="http://www.w3.org/2000/svg" xmlns:xlink="http://www.w3.org/1999/xlink" version="1.1" x="8" y="0" viewBox="5 29.49391886595174 90 41.01258914071542" enable-background="new 0 0 100 100" xml:space="preserve" height="53.40060961313012" width="117.18486849713372" class="icon-icon-0" data-fill-palette-color="accent" id="icon-0"><g fill="#0126e0" data-fill-palette-color="accent"><path d="M23.943 30.807L5 50.001 23.942 69.193A4.386 4.386 0 0 0 30.2 69.195 4.52 4.52 0 0 0 30.202 62.857L18.193 50.695 14.569 52.984 30.203 37.143A4.5 4.5 0 0 0 31.498 33.975 4.5 4.5 0 0 0 30.201 30.805 4.387 4.387 0 0 0 23.943 30.807" fill="#0126e0" data-fill-palette-color="accent"></path><path d="M76.057 30.808L95 50.001 76.058 69.193A4.386 4.386 0 0 1 69.8 69.195 4.52 4.52 0 0 1 69.798 62.857L81.807 50.696 85.431 52.985 69.796 37.144A4.5 4.5 0 0 1 68.501 33.976 4.5 4.5 0 0 1 69.798 30.806 4.386 4.386 0 0 1 76.057 30.808" fill="#0126e0" data-fill-palette-color="accent"></path><path d="M60.899 32.352A4.5 4.5 0 0 0 58.533 29.876 4.386 4.386 0 0 0 52.708 32.164L38.888 64.226A4.5 4.5 0 0 0 38.84 67.648 4.5 4.5 0 0 0 41.206 70.124 4.386 4.386 0 0 0 47.031 67.836L60.851 35.774A4.5 4.5 0 0 0 60.899 32.352" fill="#0126e0" data-fill-palette-color="accent"></path></g></svg></g></svg></g><g><rect width="55.62324575143313" height="3.484603534255568" y="48.91600607887455" x="265.3412342485668" fill="#233565" data-fill-palette-color="secondary"></rect><rect width="55.62324575143313" height="3.484603534255568" y="48.91600607887455" x="76.53311999999997" fill="#233565" data-fill-palette-color="secondary"></rect></g></svg></g><defs></defs></svg><rect width="395.52" height="113.20328805529213" fill="none" stroke="none" visibility="hidden"></rect></g></svg></g></svg>